<svg width="50" height="17" viewBox="0 0 50 17" fill="none" xmlns="http://www.w3.org/2000/svg">
<path d="M-9.76473e-05 16.8C0.399902 16.608 0.703902 16.296 0.911902 15.864C1.1359 15.432 1.2479 14.976 1.2479 14.496V2.25605C1.2479 1.80805 1.1439 1.37605 0.935902 0.960048C0.727902 0.544048 0.431902 0.224048 0.0479024 4.76837e-05H8.5919C8.4319 0.176048 8.2959 0.432048 8.1839 0.768048C8.0879 1.10405 8.0399 1.51205 8.0399 1.99205V6.28805H15.5039V1.99205C15.5039 1.51205 15.4559 1.10405 15.3599 0.768048C15.2639 0.432048 15.1279 0.176048 14.9519 4.76837e-05H23.4959C23.1119 0.224048 22.8159 0.544048 22.6079 0.960048C22.3999 1.36005 22.2959 1.78405 22.2959 2.23205V14.496C22.2959 14.976 22.3999 15.424 22.6079 15.84C22.8159 16.256 23.1119 16.576 23.4959 16.8H14.9519C15.1279 16.624 15.2639 16.368 15.3599 16.032C15.4559 15.68 15.5039 15.256 15.5039 14.76V9.72005H8.0399V14.76C8.0399 15.736 8.2319 16.416 8.6159 16.8H-9.76473e-05ZM49.567 16.8H38.023C38.391 16.464 38.535 16.064 38.455 15.6C38.375 15.136 38.175 14.728 37.855 14.376L35.887 12.096L33.463 14.76C33.191 15.064 33.055 15.424 33.055 15.84C33.071 16.256 33.255 16.576 33.607 16.8H24.775C25.367 16.528 25.887 16.232 26.335 15.912C26.799 15.592 27.199 15.232 27.535 14.832L32.887 8.64005L27.271 2.08805C26.903 1.65605 26.511 1.26405 26.095 0.912047C25.679 0.560048 25.215 0.256048 24.703 4.76837e-05H36.127C35.775 0.256048 35.607 0.600049 35.623 1.03205C35.655 1.44805 35.775 1.79205 35.983 2.06405L37.999 4.41605L40.159 1.99205C40.383 1.72005 40.495 1.37605 40.495 0.960048C40.495 0.528048 40.311 0.208048 39.943 4.76837e-05H48.895C48.399 0.128048 47.895 0.352048 47.383 0.672048C46.871 0.976048 46.383 1.39205 45.919 1.92005L40.879 7.77605L45.847 13.536C46.407 14.176 46.983 14.8 47.575 15.408C48.167 16.016 48.831 16.48 49.567 16.8Z" fill="#EAEAEA"/>
</svg>
